<svg width="64" height="64" viewBox="0 0 64 64" fill="none" xmlns="http://www.w3.org/2000/svg">
<g clip-path="url(#clip0)">
<path d="M17.5 64.0234H14.5V58.0234H17.5V64.0234ZM49.5 64.0234H46.5V58.0234H49.5V64.0234ZM1.5 54.8574H30.5V49.0234H33.5V54.8574H62.5V49.0234H65.5V55.0234H65.04V57.9043H0.0234375V55.0234H-1.5V49.0234H1.5V54.8574ZM17.5 45.7139H46.5V40.0234H49.5V45.7139H65.04V48.7617H0.0234375V45.7139H14.5V40.0234H17.5V45.7139ZM65.04 30.0234H65.5V37.0234H65.04V39.6191H0.0234375V37.0234H-1.5V30.0234H0.0234375V27.4287H65.04V30.0234ZM1.5 36.5713H30.5V30.4766H1.5V36.5713ZM33.5 36.5713H62.5V30.4766H33.5V36.5713ZM65.04 21.333H49.5V27.0234H46.5V21.333H17.5V27.0234H14.5V21.333H0.0234375V18.2861H65.04V21.333ZM65.04 12.0234H65.5V18.0234H62.5V12.1904H33.5V18.0234H30.5V12.1904H1.5V18.0234H-1.5V12.0234H0.0234375V9.14258H65.04V12.0234ZM65.04 3.04785H49.5V9.02344H46.5V3.04785H17.5V9.02344H14.5V3.04785H0.0234375V0H65.04V3.04785Z" fill="rgba(255,255,255,0.8)"/>
</g>
<defs>
<clipPath id="clip0">
<rect width="64" height="64" fill="white"/>
</clipPath>
</defs>
</svg>
