<svg width="64" height="64" viewBox="0 0 64 64" fill="none" xmlns="http://www.w3.org/2000/svg">
<g clip-path="url(#clip0_114_3)">
<rect width="64" height="64" fill="#461A0C"/>
<mask id="path-1-outside-1_114_3" maskUnits="userSpaceOnUse" x="-2.5" y="-1" width="69" height="66" fill="black">
<rect fill="white" x="-2.5" y="-1" width="69" height="66"/>
<path d="M17.5 64.0234H14.5V58.0234H17.5V64.0234ZM49.5 64.0234H46.5V58.0234H49.5V64.0234ZM1.5 54.8574H30.5V49.0234H33.5V54.8574H62.5V49.0234H65.5V55.0234H65.04V57.9043H0.0234375V55.0234H-1.5V49.0234H1.5V54.8574ZM17.5 45.7139H46.5V40.0234H49.5V45.7139H65.04V48.7617H0.0234375V45.7139H14.5V40.0234H17.5V45.7139ZM65.04 30.0234H65.5V37.0234H65.04V39.6191H0.0234375V37.0234H-1.5V30.0234H0.0234375V27.4287H65.04V30.0234ZM1.5 36.5713H30.5V30.4766H1.5V36.5713ZM33.5 36.5713H62.5V30.4766H33.5V36.5713ZM65.04 21.333H49.5V27.0234H46.5V21.333H17.5V27.0234H14.5V21.333H0.0234375V18.2861H65.04V21.333ZM65.04 12.0234H65.5V18.0234H62.5V12.1904H33.5V18.0234H30.5V12.1904H1.5V18.0234H-1.5V12.0234H0.0234375V9.14258H65.04V12.0234ZM65.04 3.04785H49.5V9.02344H46.5V3.04785H17.5V9.02344H14.5V3.04785H0.0234375V0H65.04V3.04785Z"/>
</mask>
<path d="M17.5 64.0234H14.5V58.0234H17.5V64.0234ZM49.5 64.0234H46.5V58.0234H49.5V64.0234ZM1.5 54.8574H30.5V49.0234H33.5V54.8574H62.5V49.0234H65.5V55.0234H65.04V57.9043H0.0234375V55.0234H-1.5V49.0234H1.5V54.8574ZM17.5 45.7139H46.5V40.0234H49.5V45.7139H65.04V48.7617H0.0234375V45.7139H14.5V40.0234H17.5V45.7139ZM65.04 30.0234H65.5V37.0234H65.04V39.6191H0.0234375V37.0234H-1.5V30.0234H0.0234375V27.4287H65.04V30.0234ZM1.5 36.5713H30.5V30.4766H1.5V36.5713ZM33.5 36.5713H62.5V30.4766H33.5V36.5713ZM65.04 21.333H49.5V27.0234H46.5V21.333H17.5V27.0234H14.5V21.333H0.0234375V18.2861H65.04V21.333ZM65.04 12.0234H65.5V18.0234H62.5V12.1904H33.5V18.0234H30.5V12.1904H1.5V18.0234H-1.5V12.0234H0.0234375V9.14258H65.04V12.0234ZM65.04 3.04785H49.5V9.02344H46.5V3.04785H17.5V9.02344H14.5V3.04785H0.0234375V0H65.04V3.04785Z" fill="white"/>
<path d="M17.5 64.0234V64.2234H17.7V64.0234H17.5ZM14.5 64.0234H14.3V64.2234H14.5V64.0234ZM14.5 58.0234V57.8234H14.3V58.0234H14.5ZM17.5 58.0234H17.7V57.8234H17.5V58.0234ZM49.5 64.0234V64.2234H49.7V64.0234H49.5ZM46.5 64.0234H46.3V64.2234H46.5V64.0234ZM46.5 58.0234V57.8234H46.3V58.0234H46.5ZM49.5 58.0234H49.7V57.8234H49.5V58.0234ZM1.5 54.8574H1.3V55.0574H1.5V54.8574ZM30.5 54.8574V55.0574H30.7V54.8574H30.5ZM30.5 49.0234V48.8234H30.3V49.0234H30.5ZM33.5 49.0234H33.7V48.8234H33.5V49.0234ZM33.5 54.8574H33.3V55.0574H33.5V54.8574ZM62.5 54.8574V55.0574H62.7V54.8574H62.5ZM62.5 49.0234V48.8234H62.3V49.0234H62.5ZM65.5 49.0234H65.7V48.8234H65.5V49.0234ZM65.5 55.0234V55.2234H65.7V55.0234H65.5ZM65.04 55.0234V54.8234H64.84V55.0234H65.04ZM65.04 57.9043V58.1043H65.24V57.9043H65.04ZM0.0234375 57.9043H-0.176563V58.1043H0.0234375V57.9043ZM0.0234375 55.0234H0.223438V54.8234H0.0234375V55.0234ZM-1.5 55.0234H-1.7V55.2234H-1.5V55.0234ZM-1.5 49.0234V48.8234H-1.7V49.0234H-1.5ZM1.5 49.0234H1.7V48.8234H1.5V49.0234ZM17.5 45.7139H17.3V45.9139H17.5V45.7139ZM46.5 45.7139V45.9139H46.7V45.7139H46.5ZM46.5 40.0234V39.8234H46.3V40.0234H46.5ZM49.5 40.0234H49.7V39.8234H49.5V40.0234ZM49.5 45.7139H49.3V45.9139H49.5V45.7139ZM65.04 45.7139H65.24V45.5139H65.04V45.7139ZM65.04 48.7617V48.9617H65.24V48.7617H65.04ZM0.0234375 48.7617H-0.176563V48.9617H0.0234375V48.7617ZM0.0234375 45.7139V45.5139H-0.176563V45.7139H0.0234375ZM14.5 45.7139V45.9139H14.7V45.7139H14.5ZM14.5 40.0234V39.8234H14.3V40.0234H14.5ZM17.5 40.0234H17.7V39.8234H17.5V40.0234ZM65.04 30.0234H64.84V30.2234H65.04V30.0234ZM65.5 30.0234H65.7V29.8234H65.5V30.0234ZM65.5 37.0234V37.2234H65.7V37.0234H65.5ZM65.04 37.0234V36.8234H64.84V37.0234H65.04ZM65.04 39.6191V39.8191H65.24V39.6191H65.04ZM0.0234375 39.6191H-0.176563V39.8191H0.0234375V39.6191ZM0.0234375 37.0234H0.223438V36.8234H0.0234375V37.0234ZM-1.5 37.0234H-1.7V37.2234H-1.5V37.0234ZM-1.5 30.0234V29.8234H-1.7V30.0234H-1.5ZM0.0234375 30.0234V30.2234H0.223438V30.0234H0.0234375ZM0.0234375 27.4287V27.2287H-0.176563V27.4287H0.0234375ZM65.04 27.4287H65.24V27.2287H65.04V27.4287ZM1.5 36.5713H1.3V36.7713H1.5V36.5713ZM30.5 36.5713V36.7713H30.7V36.5713H30.5ZM30.5 30.4766H30.7V30.2766H30.5V30.4766ZM1.5 30.4766V30.2766H1.3V30.4766H1.5ZM33.5 36.5713H33.3V36.7713H33.5V36.5713ZM62.5 36.5713V36.7713H62.7V36.5713H62.5ZM62.5 30.4766H62.7V30.2766H62.5V30.4766ZM33.5 30.4766V30.2766H33.3V30.4766H33.5ZM65.04 21.333V21.533H65.24V21.333H65.04ZM49.5 21.333V21.133H49.3V21.333H49.5ZM49.5 27.0234V27.2234H49.7V27.0234H49.5ZM46.5 27.0234H46.3V27.2234H46.5V27.0234ZM46.5 21.333H46.7V21.133H46.5V21.333ZM17.5 21.333V21.133H17.3V21.333H17.5ZM17.5 27.0234V27.2234H17.7V27.0234H17.5ZM14.5 27.0234H14.3V27.2234H14.5V27.0234ZM14.5 21.333H14.7V21.133H14.5V21.333ZM0.0234375 21.333H-0.176563V21.533H0.0234375V21.333ZM0.0234375 18.2861V18.0861H-0.176563V18.2861H0.0234375ZM65.04 18.2861H65.24V18.0861H65.04V18.2861ZM65.04 12.0234H64.84V12.2234H65.04V12.0234ZM65.5 12.0234H65.7V11.8234H65.5V12.0234ZM65.5 18.0234V18.2234H65.7V18.0234H65.5ZM62.5 18.0234H62.3V18.2234H62.5V18.0234ZM62.5 12.1904H62.7V11.9904H62.5V12.1904ZM33.5 12.1904V11.9904H33.3V12.1904H33.5ZM33.5 18.0234V18.2234H33.7V18.0234H33.5ZM30.5 18.0234H30.3V18.2234H30.5V18.0234ZM30.5 12.1904H30.7V11.9904H30.5V12.1904ZM1.5 12.1904V11.9904H1.3V12.1904H1.5ZM1.5 18.0234V18.2234H1.7V18.0234H1.5ZM-1.5 18.0234H-1.7V18.2234H-1.5V18.0234ZM-1.5 12.0234V11.8234H-1.7V12.0234H-1.5ZM0.0234375 12.0234V12.2234H0.223438V12.0234H0.0234375ZM0.0234375 9.14258V8.94258H-0.176563V9.14258H0.0234375ZM65.04 9.14258H65.24V8.94258H65.04V9.14258ZM65.04 3.04785V3.24785H65.24V3.04785H65.04ZM49.5 3.04785V2.84785H49.3V3.04785H49.5ZM49.5 9.02344V9.22344H49.7V9.02344H49.5ZM46.5 9.02344H46.3V9.22344H46.5V9.02344ZM46.5 3.04785H46.7V2.84785H46.5V3.04785ZM17.5 3.04785V2.84785H17.3V3.04785H17.5ZM17.5 9.02344V9.22344H17.7V9.02344H17.5ZM14.5 9.02344H14.3V9.22344H14.5V9.02344ZM14.5 3.04785H14.7V2.84785H14.5V3.04785ZM0.0234375 3.04785H-0.176563V3.24785H0.0234375V3.04785ZM0.0234375 0V-0.2H-0.176563V0H0.0234375ZM65.04 0H65.24V-0.2H65.04V0ZM17.5 64.0234V63.8234H14.5V64.0234V64.2234H17.5V64.0234ZM14.5 64.0234H14.7V58.0234H14.5H14.3V64.0234H14.5ZM14.5 58.0234V58.2234H17.5V58.0234V57.8234H14.5V58.0234ZM17.5 58.0234H17.3V64.0234H17.5H17.7V58.0234H17.5ZM49.5 64.0234V63.8234H46.5V64.0234V64.2234H49.5V64.0234ZM46.5 64.0234H46.7V58.0234H46.5H46.3V64.0234H46.5ZM46.5 58.0234V58.2234H49.5V58.0234V57.8234H46.5V58.0234ZM49.5 58.0234H49.3V64.0234H49.5H49.7V58.0234H49.5ZM1.5 54.8574V55.0574H30.5V54.8574V54.6574H1.5V54.8574ZM30.5 54.8574H30.7V49.0234H30.5H30.3V54.8574H30.5ZM30.5 49.0234V49.2234H33.5V49.0234V48.8234H30.5V49.0234ZM33.5 49.0234H33.3V54.8574H33.5H33.7V49.0234H33.5ZM33.5 54.8574V55.0574H62.5V54.8574V54.6574H33.5V54.8574ZM62.5 54.8574H62.7V49.0234H62.5H62.3V54.8574H62.5ZM62.5 49.0234V49.2234H65.5V49.0234V48.8234H62.5V49.0234ZM65.5 49.0234H65.3V55.0234H65.5H65.7V49.0234H65.5ZM65.5 55.0234V54.8234H65.04V55.0234V55.2234H65.5V55.0234ZM65.04 55.0234H64.84V57.9043H65.04H65.24V55.0234H65.04ZM65.04 57.9043V57.7043H0.0234375V57.9043V58.1043H65.04V57.9043ZM0.0234375 57.9043H0.223438V55.0234H0.0234375H-0.176563V57.9043H0.0234375ZM0.0234375 55.0234V54.8234H-1.5V55.0234V55.2234H0.0234375V55.0234ZM-1.5 55.0234H-1.3V49.0234H-1.5H-1.7V55.0234H-1.5ZM-1.5 49.0234V49.2234H1.5V49.0234V48.8234H-1.5V49.0234ZM1.5 49.0234H1.3V54.8574H1.5H1.7V49.0234H1.5ZM17.5 45.7139V45.9139H46.5V45.7139V45.5139H17.5V45.7139ZM46.5 45.7139H46.7V40.0234H46.5H46.3V45.7139H46.5ZM46.5 40.0234V40.2234H49.5V40.0234V39.8234H46.5V40.0234ZM49.5 40.0234H49.3V45.7139H49.5H49.7V40.0234H49.5ZM49.5 45.7139V45.9139H65.04V45.7139V45.5139H49.5V45.7139ZM65.04 45.7139H64.84V48.7617H65.04H65.24V45.7139H65.04ZM65.04 48.7617V48.5617H0.0234375V48.7617V48.9617H65.04V48.7617ZM0.0234375 48.7617H0.223438V45.7139H0.0234375H-0.176563V48.7617H0.0234375ZM0.0234375 45.7139V45.9139H14.5V45.7139V45.5139H0.0234375V45.7139ZM14.5 45.7139H14.7V40.0234H14.5H14.3V45.7139H14.5ZM14.5 40.0234V40.2234H17.5V40.0234V39.8234H14.5V40.0234ZM17.5 40.0234H17.3V45.7139H17.5H17.7V40.0234H17.5ZM65.04 30.0234V30.2234H65.5V30.0234V29.8234H65.04V30.0234ZM65.5 30.0234H65.3V37.0234H65.5H65.7V30.0234H65.5ZM65.5 37.0234V36.8234H65.04V37.0234V37.2234H65.5V37.0234ZM65.04 37.0234H64.84V39.6191H65.04H65.24V37.0234H65.04ZM65.04 39.6191V39.4191H0.0234375V39.6191V39.8191H65.04V39.6191ZM0.0234375 39.6191H0.223438V37.0234H0.0234375H-0.176563V39.6191H0.0234375ZM0.0234375 37.0234V36.8234H-1.5V37.0234V37.2234H0.0234375V37.0234ZM-1.5 37.0234H-1.3V30.0234H-1.5H-1.7V37.0234H-1.5ZM-1.5 30.0234V30.2234H0.0234375V30.0234V29.8234H-1.5V30.0234ZM0.0234375 30.0234H0.223438V27.4287H0.0234375H-0.176563V30.0234H0.0234375ZM0.0234375 27.4287V27.6287H65.04V27.4287V27.2287H0.0234375V27.4287ZM65.04 27.4287H64.84V30.0234H65.04H65.24V27.4287H65.04ZM1.5 36.5713V36.7713H30.5V36.5713V36.3713H1.5V36.5713ZM30.5 36.5713H30.7V30.4766H30.5H30.3V36.5713H30.5ZM30.5 30.4766V30.2766H1.5V30.4766V30.6766H30.5V30.4766ZM1.5 30.4766H1.3V36.5713H1.5H1.7V30.4766H1.5ZM33.5 36.5713V36.7713H62.5V36.5713V36.3713H33.5V36.5713ZM62.5 36.5713H62.7V30.4766H62.5H62.3V36.5713H62.5ZM62.5 30.4766V30.2766H33.5V30.4766V30.6766H62.5V30.4766ZM33.5 30.4766H33.3V36.5713H33.5H33.7V30.4766H33.5ZM65.04 21.333V21.133H49.5V21.333V21.533H65.04V21.333ZM49.5 21.333H49.3V27.0234H49.5H49.7V21.333H49.5ZM49.5 27.0234V26.8234H46.5V27.0234V27.2234H49.5V27.0234ZM46.5 27.0234H46.7V21.333H46.5H46.3V27.0234H46.5ZM46.5 21.333V21.133H17.5V21.333V21.533H46.5V21.333ZM17.5 21.333H17.3V27.0234H17.5H17.7V21.333H17.5ZM17.5 27.0234V26.8234H14.5V27.0234V27.2234H17.5V27.0234ZM14.5 27.0234H14.7V21.333H14.5H14.3V27.0234H14.5ZM14.5 21.333V21.133H0.0234375V21.333V21.533H14.5V21.333ZM0.0234375 21.333H0.223438V18.2861H0.0234375H-0.176563V21.333H0.0234375ZM0.0234375 18.2861V18.4861H65.04V18.2861V18.0861H0.0234375V18.2861ZM65.04 18.2861H64.84V21.333H65.04H65.24V18.2861H65.04ZM65.04 12.0234V12.2234H65.5V12.0234V11.8234H65.04V12.0234ZM65.5 12.0234H65.3V18.0234H65.5H65.7V12.0234H65.5ZM65.5 18.0234V17.8234H62.5V18.0234V18.2234H65.5V18.0234ZM62.5 18.0234H62.7V12.1904H62.5H62.3V18.0234H62.5ZM62.5 12.1904V11.9904H33.5V12.1904V12.3904H62.5V12.1904ZM33.5 12.1904H33.3V18.0234H33.5H33.7V12.1904H33.5ZM33.5 18.0234V17.8234H30.5V18.0234V18.2234H33.5V18.0234ZM30.5 18.0234H30.7V12.1904H30.5H30.3V18.0234H30.5ZM30.5 12.1904V11.9904H1.5V12.1904V12.3904H30.5V12.1904ZM1.5 12.1904H1.3V18.0234H1.5H1.7V12.1904H1.5ZM1.5 18.0234V17.8234H-1.5V18.0234V18.2234H1.5V18.0234ZM-1.5 18.0234H-1.3V12.0234H-1.5H-1.7V18.0234H-1.5ZM-1.5 12.0234V12.2234H0.0234375V12.0234V11.8234H-1.5V12.0234ZM0.0234375 12.0234H0.223438V9.14258H0.0234375H-0.176563V12.0234H0.0234375ZM0.0234375 9.14258V9.34258H65.04V9.14258V8.94258H0.0234375V9.14258ZM65.04 9.14258H64.84V12.0234H65.04H65.24V9.14258H65.04ZM65.04 3.04785V2.84785H49.5V3.04785V3.24785H65.04V3.04785ZM49.5 3.04785H49.3V9.02344H49.5H49.7V3.04785H49.5ZM49.5 9.02344V8.82344H46.5V9.02344V9.22344H49.5V9.02344ZM46.5 9.02344H46.7V3.04785H46.5H46.3V9.02344H46.5ZM46.5 3.04785V2.84785H17.5V3.04785V3.24785H46.5V3.04785ZM17.5 3.04785H17.3V9.02344H17.5H17.7V3.04785H17.5ZM17.5 9.02344V8.82344H14.5V9.02344V9.22344H17.5V9.02344ZM14.5 9.02344H14.7V3.04785H14.5H14.3V9.02344H14.5ZM14.5 3.04785V2.84785H0.0234375V3.04785V3.24785H14.5V3.04785ZM0.0234375 3.04785H0.223438V0H0.0234375H-0.176563V3.04785H0.0234375ZM0.0234375 0V0.2H65.04V0V-0.2H0.0234375V0ZM65.04 0H64.84V3.04785H65.04H65.24V0H65.04Z" fill="white" mask="url(#path-1-outside-1_114_3)"/>
</g>
<defs>
<clipPath id="clip0_114_3">
<rect width="64" height="64" fill="white"/>
</clipPath>
</defs>
</svg>
