<svg width="64" height="64" viewBox="0 0 64 64" fill="none" xmlns="http://www.w3.org/2000/svg">
<path d="M14 55.25H50V53.0625H64V64H0V53.0625H14V55.25ZM28 53.0625H14V50.875H28V53.0625ZM50 53.0625H36V50.875H50V53.0625ZM36 50.875H28V48.6875H36V50.875ZM28 48.6875H14V46.5H28V48.6875ZM50 48.6875H36V46.5H50V48.6875ZM14 46.5H0V44.3125H14V46.5ZM64 46.5H50V44.3125H64V46.5ZM28 44.3125H14V42.125H28V44.3125ZM50 44.3125H36V42.125H50V44.3125ZM36 42.125H28V39.9375H36V42.125ZM28 39.9375H14V37.75H28V39.9375ZM50 39.9375H36V37.75H50V39.9375ZM64 37.75H50V35.5625H14V37.75H0V29H64V37.75Z" fill="#461A0C"/>
</svg>
