<svg width="512" height="512" viewBox="0 0 512 512" fill="none" xmlns="http://www.w3.org/2000/svg">
<path d="M445.218 512H422.957V489.739H445.218V512ZM422.956 44.5215H111.305V445.218H356.174V133.565H200.348V356.174H267.131V244.869H311.652V356.174H289.392V378.435H244.869V400.695H200.348V378.435H178.087V333.913H155.826V133.565H178.087V111.305H222.608V89.0439H356.174V111.305H378.435V155.826H400.695V445.218H378.435V467.479H333.913V489.739H111.305V467.478H89.0439V422.956H66.7822V44.5215H89.0439V22.2607H133.565V0H422.956V44.5215ZM66.7822 467.479H44.5215V445.218H66.7822V467.479ZM267.131 244.869H244.869V200.348H267.131V244.869ZM289.392 200.348H267.131V178.087H289.392V200.348ZM22.2607 155.826H0V133.565H22.2607V155.826ZM512 133.565H489.739V111.305H512V133.565ZM178.087 111.305H155.826V89.0439H178.087V111.305Z" fill="white"/>
</svg>
