<svg width="64" height="64" viewBox="0 0 64 64" fill="none" xmlns="http://www.w3.org/2000/svg">
<path d="M55.6523 64H52.8691V61.2178H55.6523V64ZM52.8691 5.56543H13.9131V55.6523H44.5215V16.6953H25.0439V44.5215H33.3916V30.6084H38.9561V44.5215H36.1738V47.3047H30.6084V50.0869H25.0439V47.3047H22.2607V41.7393H19.4785V16.6953H22.2607V13.9131H27.8262V11.1309H44.5215V13.9131H47.3047V19.4785H50.0869V55.6523H47.3047V58.4346H41.7393V61.2178H13.9131V58.4346H11.1309V52.8691H8.34766V5.56543H11.1309V2.78223H16.6953V0H52.8691V5.56543ZM8.34766 58.4346H5.56543V55.6523H8.34766V58.4346ZM33.3916 30.6084H30.6084V25.0439H33.3916V30.6084ZM36.1738 25.0439H33.3916V22.2607H36.1738V25.0439ZM2.78223 19.4785H0V16.6953H2.78223V19.4785ZM64 16.6953H61.2178V13.9131H64V16.6953ZM22.2607 13.9131H19.4785V11.1309H22.2607V13.9131Z" fill="white"/>
</svg>
