<svg width="512" height="523" viewBox="0 0 512 523" fill="none" xmlns="http://www.w3.org/2000/svg">
<path d="M91.8975 281.82H105.025V325.642H118.154V369.462H131.282V413.282H144.41V457.103H157.538V500.923H183.795V457.103H196.924V413.282H210.052V369.462H223.18V325.642H236.308V281.82H249.437V238H262.564V281.82H275.692V325.642H288.821V369.462H301.949V413.282H315.077V457.103H328.205V500.923H354.461V457.103H367.59V413.282H380.718V369.462H393.846V325.642H406.974V281.82H420.103V238H433.23V281.82H446.358V325.642H459.487V369.462H472.615V413.282H485.743V457.103H498.871V500.923H512V522.833H498.871L485.743 522.834L472.615 522.833V522.834H433.23L420.103 522.833V522.834H380.718V522.833L367.59 522.834L354.461 522.833H328.205L315.077 522.834L301.949 522.833V522.834H262.564L249.437 522.833V522.834H210.052V522.833L196.924 522.834L183.795 522.833H157.538L144.41 522.834L131.282 522.833V522.834H91.8975L78.7695 522.833V522.834H39.3848V522.833L26.2568 522.834L13.1279 522.833H0V500.923H13.1279V457.103H26.2568V413.282H39.3848V369.462H52.5127V325.642H65.6406V281.82H78.7695V238H91.8975V281.82Z" fill="white"/>
</svg>
