<svg width="64" height="64" viewBox="0 0 64 64" fill="none" xmlns="http://www.w3.org/2000/svg">
<path d="M11.4873 33.4775H13.1279V38.9551H14.7695V44.4326H16.4102V49.9102H18.0518V55.3877H19.6924V60.8652H22.9736V55.3877H24.6152V49.9102H26.2559V44.4326H27.8975V38.9551H29.5381V33.4775H31.1787V28H32.8203V33.4775H34.4609V38.9551H36.1025V44.4326H37.7432V49.9102H39.3848V55.3877H41.0254V60.8652H42.666V63.6045H0V60.8652H1.64062V55.3877H3.28223V49.9102H4.92285V44.4326H6.56445V38.9551H8.20508V33.4775H9.8457V28H11.4873V33.4775ZM54.1543 33.4775H55.7949V38.9551H57.4365V44.4326H59.0771V49.9102H60.7188V55.3877H62.3594V60.8652H64V63.6045H42.667V60.8652H44.3076V55.3877H45.9492V49.9102H47.5898V44.4326H49.2314V38.9551H50.8721V33.4775H52.5127V28H54.1543V33.4775Z" fill="white"/>
</svg>
