<svg width="128" height="45" viewBox="0 0 128 45" fill="none" xmlns="http://www.w3.org/2000/svg">
<path d="M65.2549 1.76465H66.5098V3.5293H70.2744V4.41211H75.1875L76.8418 2.24219L78.0537 2.35645L79.3535 0.651367L81.7773 0.879883L80.4775 2.58496L81.6904 2.69922L80.3135 4.50488V5.29395H87.8428V6.17676H87.9092L91.3164 4.10254L92.4023 4.32227L94.9121 2.79395L97.0859 3.23535L94.5762 4.76367L95.6631 4.98438L92.8623 6.68945V7.05859H95.3721V7.94141H97.8828V8.82324H99.3545L103.932 7.21387L104.818 7.52637L108.367 6.27832L110.142 6.90234L106.593 8.14941L107.48 8.46191L102.902 10.0713V10.5879H105.412V11.4707H107.922V12.3525H108.973L113.823 11.3682L114.451 11.75L118.798 10.8682L120.053 11.6318L115.706 12.5146L116.333 12.8965L110.432 14.0938V14.1172H112.941V16.7646H115.185L120.32 16.2812L121.62 17.9854L115.451 18.5664V20.2939H117.961V21.6182H122.98V22.0596H128V22.9414H122.98V23.3828H117.961V24.7061H115.451V26.4336L121.619 27.0146L120.32 28.7188L115.185 28.2354H112.941V30.8818H110.432V30.9053L116.333 32.1035L115.706 32.4854L120.053 33.3682L118.798 34.1318L114.451 33.25L113.823 33.6318L108.973 32.6475H107.922V33.5293H105.412V34.4121H102.902V34.9287L107.479 36.5381L106.593 36.8506L110.142 38.0986L108.367 38.7217L104.818 37.4746L103.931 37.7861L99.3535 36.1768H97.8828V37.0586H95.3721V37.9414H92.8623V38.3105L95.6641 40.0166L94.5771 40.2373L97.0869 41.7656L94.9131 42.207L92.4033 40.6787L91.3174 40.8994L87.9082 38.8232H87.8428V39.7061H80.3135V40.4941L81.6895 42.2998L80.4766 42.4141L81.7764 44.1191L79.3525 44.3477L78.0527 42.6426L76.8408 42.7568L75.1875 40.5879H70.2744V41.4707H66.5098V43.2344H65.2549V45H62.7451V43.2344H61.4902V41.4707H57.7256V40.5879H52.8125L51.1592 42.7578L49.9463 42.6436L48.6475 44.3477L46.2236 44.1191L47.5225 42.415L46.3105 42.3008L47.6865 40.4941V39.7061H40.1572V38.8232H40.0908L36.6836 40.8984L35.5977 40.6777L33.0879 42.2061L30.9131 41.7646L33.4229 40.2363L32.3369 40.0166L35.1377 38.3105V37.9414H32.6279V37.0586H30.1172V36.1768H28.6465L24.0693 37.7861L20.5195 36.5381L25.0977 34.9277V34.4121H22.5879V33.5293H20.0781V32.6475H19.0234L14.1758 33.6318L13.5488 33.25L9.20215 34.1318L7.94727 33.3682L12.2939 32.4854L11.666 32.1035L17.5684 30.9053V30.8818H15.0586V28.2354H12.8145L7.67871 28.7188L7.35352 28.293L2.50488 28.749L1.85547 27.8975L6.7041 27.4404L6.37988 27.0137L12.5488 26.4326V24.7061H10.0391V23.3828H5.01953V22.9414H0V22.0596H5.01953V21.6182H10.0391V20.2939H12.5488V18.5664L6.37988 17.9854L6.70508 17.5596L1.85645 17.1025L2.50586 16.25L7.35449 16.707L7.67871 16.2812L12.8145 16.7646H15.0586V14.1172H17.5684V14.0938L11.666 12.8965L12.2939 12.5146L7.94629 11.6318L9.20215 10.8682L13.5488 11.75L14.1758 11.3682L19.0234 12.3525H20.0781V11.4707H22.5879V10.5879H25.0977V10.0713L20.5205 8.46191L21.4072 8.15039L17.8574 6.90234L19.6318 6.27832L23.1816 7.52637L24.0693 7.21484L28.6465 8.82324H30.1172V7.94141H32.6279V7.05859H35.1377V6.68945L32.3359 4.98438L33.4229 4.76367L30.9131 3.23535L33.0859 2.79395L35.5957 4.32227L36.6836 4.10156L40.0908 6.17676H40.1572V5.29395H47.6865V4.50488L46.3105 2.69922L47.5225 2.58496L46.2236 0.880859L48.6475 0.652344L49.9463 2.35645L51.1592 2.24219L52.8125 4.41211H57.7256V3.5293H61.4902V1.76465H62.7451V0H65.2549V1.76465ZM23.1816 37.4746L19.6328 38.7217L17.8584 38.0977L21.4072 36.8506L23.1816 37.4746ZM126.144 27.8975L125.494 28.75L120.646 28.293L121.296 27.4404L126.144 27.8975ZM58.9805 20.7354V24.2646H69.0195V20.7354H58.9805ZM126.144 17.1025L121.296 17.5596L120.646 16.707L125.494 16.25L126.144 17.1025Z" fill="white"/>
</svg>
