<svg width="128" height="73" viewBox="0 0 128 73" fill="none" xmlns="http://www.w3.org/2000/svg">
<path d="M65.2549 2.83496H66.5098V5.66895H70.2744V7.08594H75.1885L76.8418 3.60254L78.0537 3.78613L79.3525 1.04883L81.7773 1.41504L80.4775 4.15332L81.6895 4.33594L80.3135 7.23633V8.50391H87.8428V9.9209H87.9092L91.3164 6.58789L92.4033 6.94238L94.9131 4.4873L97.0859 5.19629L94.5762 7.65137L95.6641 8.00586L92.8623 10.7451V11.3379H95.3721V12.7559H97.8828V14.1729H99.3516L103.931 11.5869L104.818 12.0889L108.368 10.084L110.143 11.0869L106.594 13.0908L107.48 13.5918L102.902 16.1758V17.0068H105.412V18.4248H107.922V19.8418H108.971L113.823 18.2598L114.451 18.874L118.799 17.4561L120.053 18.6836L115.706 20.1006L116.334 20.7148L110.432 22.6387V22.6768H112.941V26.9277H115.19L120.32 26.1514L120.646 26.8359L125.495 26.1025L126.144 27.4707L121.295 28.2041L121.62 28.8887L115.451 29.8213V32.5967H117.961V34.7227H122.98V35.4316H128V36.8486H122.98V37.5576H117.961V39.6836H115.451V42.458L121.62 43.3916L121.295 44.0762L126.144 44.8096L125.495 46.1787L120.646 45.4443L120.32 46.1289L115.186 45.3525H112.941V49.6045H110.432V49.6406L116.333 51.5654L115.706 52.1797L120.053 53.5967L118.798 54.8242L114.451 53.4062L113.823 54.0205L108.971 52.4385H107.922V53.8564H105.412V55.2734H102.902V56.1035L107.48 58.6885L106.593 59.1895L110.143 61.1943L108.368 62.1963L104.818 60.1914L103.931 60.6934L99.3516 58.1074H97.8828V59.5254H95.3721V60.9424H92.8623V61.5342L95.6631 64.2744L94.5771 64.6289L97.0869 67.084L94.9131 67.792L92.4033 65.3379L91.3164 65.6924L87.9082 62.3594H87.8428V63.7773H80.3135V65.0439L81.6895 67.9443L80.4775 68.1279L81.7764 70.8652L79.3516 71.2324L78.0527 68.4941L76.8408 68.6777L75.1885 65.1943H70.2744V66.6113H66.5098V69.4463H65.2549V72.2803H62.7451V69.4463H61.4902V66.6113H57.7256V65.1943H52.8115L51.1592 68.6777L49.9473 68.4951L48.6484 71.2324L46.2236 70.8652L47.5225 68.1279L46.3105 67.9443L47.6865 65.0449V63.7773H40.1572V62.3594H40.0918L36.6836 65.6924L35.5977 65.3379L33.0879 67.793L30.9141 67.084L33.4238 64.6299L32.3369 64.2754L35.1377 61.5342V60.9424H32.6279V59.5254H30.1172V58.1074H28.6484L24.0693 60.6934L23.1816 60.1914L19.6318 62.1963L17.8574 61.1934L21.4072 59.1895L20.5195 58.6885L25.0977 56.1035V55.2734H22.5879V53.8564H20.0781V52.4385H19.0293L14.1768 54.0205L13.5488 53.4062L9.20215 54.8232L7.94727 53.5967L12.2939 52.1797L11.667 51.5654L17.5684 49.6406V49.6045H15.0586V45.3525H12.8164L7.67871 46.1299L7.35352 45.4443L2.50586 46.1787L1.85547 44.8086L6.7041 44.0752L6.37891 43.3916L12.5488 42.458V39.6836H10.0391V37.5576H5.01953V36.8486H0V35.4316H5.01953V34.7227H10.0391V32.5967H12.5488V29.8213L6.37891 28.8887L6.7041 28.2041L1.85645 27.4707L2.50488 26.1025L7.35352 26.8359L7.67871 26.1514L12.8096 26.9277H15.0586V22.6768H17.5684V22.6387L11.667 20.7148L12.2939 20.1006L7.94727 18.6836L9.20215 17.457L13.5488 18.874L14.1768 18.2598L19.0293 19.8418H20.0781V18.4248H22.5879V17.0068H25.0977V16.1768L20.5195 13.5918L21.4062 13.0908L17.8574 11.0869L19.6328 10.084L23.1826 12.0879L24.0693 11.5879L28.6484 14.1729H30.1172V12.7559H32.6279V11.3379H35.1377V10.7451L32.3359 8.00488L33.4229 7.65137L30.9131 5.19629L33.0869 4.4873L35.5967 6.94238L36.6836 6.58789L40.0908 9.9209H40.1572V8.50391H47.6865V7.23633L46.3105 4.33594L47.5225 4.15234L46.2227 1.41504L48.6475 1.04785L49.9463 3.78613L51.1582 3.60254L52.8115 7.08594H57.7256V5.66895H61.4902V2.83496H62.7451V0H65.2549V2.83496ZM58.9805 33.3057V38.9746H69.0195V33.3057H58.9805Z" fill="white"/>
</svg>
